<svg viewBox="0 0 96 96" xmlns="http://www.w3.org/2000/svg" xmlns:xlink="http://www.w3.org/1999/xlink" id="Icons_ShoppingBag" overflow="hidden"><path d="M68.3 83.2 71 40.6 73.8 77.7 68.3 83.2ZM62.1 86 22.1 86 25.6 30 30 30 30 38C30 39.1 30.9 40 32 40 33.1 40 34 39.1 34 38L34 30 54 30 54 38C54 39.1 54.9 40 56 40 57.1 40 58 39.1 58 38L58 30 65.6 30 62.1 86ZM34 20C34 15.4 37.1 11.6 41.3 10.4 39.8 12.6 39 15.2 39 18L39 24 34 24 34 20ZM46.6 10.3C50.9 11.4 54 15.3 54 20L54 24 43 24 43 18C43 14.9 44.4 12.2 46.6 10.3ZM53 8C58.5 8 63 12.5 63 18L63 24 58 24 58 20C58 15 55.4 10.6 51.4 8.1 51.9 8.1 52.5 8 53 8ZM76 27.8C75.9 25.7 74.1 24 72 24L67.7 24C69.7 24 71.4 25.5 71.7 27.4 71.4 25.5 69.8 24 67.7 24L67 24 67 18C67 10.3 60.7 4 53 4 50.3 4 47.8 4.8 45.7 6.1 45.1 6 44.6 6 44 6 36.3 6 30 12.3 30 20L30 24 23.8 24C21.7 24 19.9 25.6 19.8 27.8L16.1 87.8C16 90.1 17.8 92 20.1 92L64.1 92 66.4 92C67.5 92 68.6 91.5 69.3 90.7L78.8 81.3C79.6 80.5 80.1 79.3 80 78.2L76 27.8Z"/></svg>