<svg viewBox="0 0 96 96" xmlns="http://www.w3.org/2000/svg" xmlns:xlink="http://www.w3.org/1999/xlink" id="Icons_Hamster" overflow="hidden"><path d="M46 44C46 42.9 46.9 42 48 42 49.1 42 50 42.9 50 44 50 45.1 49.1 46 48 46 46.9 46 46 45.1 46 44ZM16 44C16 26.4 30.4 12 48 12 65.6 12 80 26.4 80 44 80 49.5 78.6 54.7 76.2 59.2L71.7 57.1C71.8 55.9 71.8 54.8 72.1 54 72.4 53 73 52.1 73.7 51.4L75.5 49.6C75.9 49.2 76.1 48.7 76.1 48.2L76.1 46C76.1 45.4 75.7 45 75.1 45L65.9 45C65.4 45 64.9 45.1 64.4 45.3L60.6 46.8C60.3 46.9 60.2 47.2 60.3 47.5L61 49C61 49 58.2 54.5 52 55L46.3 55C45.2 55 44.2 55.2 43.2 55.6L46.7 49.9C47.1 50 47.5 50 48 50 51.3 50 54 47.3 54 44 54 40.7 51.3 38 48 38 44.7 38 42 40.7 42 44 42 45.4 42.5 46.7 43.3 47.8L29.5 70.1C21.3 64.3 16 54.8 16 44ZM71 66.2 71 62.2 74.8 61.4C73.7 63.2 72.4 64.7 71 66.2ZM43.5 75.7 47.8 72.8 52.7 75.7C51.2 75.9 49.6 76 48 76 46.5 76 45 75.9 43.5 75.7ZM38.1 63.9C38.5 67.2 40.8 69.8 43.8 70.7L42.2 75.5C38.9 74.9 35.8 73.8 32.9 72.2L38.1 63.9ZM68.4 64.2 69.8 67.4C65.7 71.2 60.5 74 54.8 75.2L54 69.4C58.4 68.7 64 67.2 68.4 64.2ZM74 84 25.6 84 30.8 75.6C35.9 78.4 41.8 80 48 80 67.9 80 84 63.9 84 44 84 24.1 67.9 8 48 8 28.1 8 12 24.1 12 44 12 56.2 18.1 67 27.4 73.5L20.3 84.9C19.9 85.5 19.9 86.3 20.3 86.9 20.7 87.5 21.3 87.9 22 87.9L74 87.9C75.1 87.9 76 87 76 85.9 76 84.8 75.1 84 74 84Z"/></svg>