<svg viewBox="0 0 96 96" xmlns="http://www.w3.org/2000/svg" xmlns:xlink="http://www.w3.org/1999/xlink" id="Icons_Doctor" overflow="hidden"><circle cx="48" cy="30" r="16"/><path d="M59.22 59.75C59.2255 61.0147 60.2553 62.0355 61.52 62.03 62.7847 62.0245 63.8055 60.9947 63.8 59.73 63.7945 58.4692 62.7708 57.45 61.51 57.45 60.2508 57.4444 59.2255 58.4607 59.2199 59.7199 59.2199 59.7299 59.2199 59.74 59.22 59.75ZM61.51 58.46C62.2224 58.4545 62.8044 59.0275 62.81 59.74 62.8155 60.4524 62.2424 61.0344 61.53 61.0399 60.8176 61.0454 60.2356 60.4724 60.23 59.76 60.23 59.7566 60.23 59.7533 60.23 59.75 60.2245 59.0431 60.7931 58.4656 61.5 58.46 61.5033 58.46 61.5067 58.46 61.51 58.46Z"/><path d="M76.8 59.6C72.5301 56.3115 67.6738 53.8647 62.49 52.39L62.49 56.27C64.0396 56.7189 65.107 58.1367 65.11 59.75 65.11 61.7382 63.4982 63.35 61.51 63.35 59.5218 63.35 57.91 61.7382 57.91 59.75 57.913 58.1367 58.9804 56.7189 60.53 56.27L60.53 51.81C56.4583 50.6249 52.2407 50.0157 48 50 43.624 50.0732 39.2766 50.7221 35.07 51.93L35.07 57.12C38.6166 57.6362 41.2477 60.676 41.25 64.26 41.2452 64.7452 40.9822 65.191 40.56 65.43L40.56 73.87C40.5357 74.8823 39.7826 75.7284 38.78 75.87 38.6517 76.3113 38.2392 76.6083 37.78 76.59L37.44 76.59C36.6806 76.6548 36.0125 76.0918 35.9476 75.3324 35.8828 74.573 36.4459 73.9048 37.2053 73.84 37.2834 73.8333 37.3619 73.8333 37.44 73.84L37.78 73.84C38.2125 73.8079 38.6164 74.0583 38.78 74.46 39.0293 74.355 39.191 74.1105 39.19 73.84L39.19 65.43C38.7583 65.2007 38.4918 64.7487 38.5 64.26 38.5 61.7968 36.5032 59.8 34.04 59.8 31.5768 59.8 29.58 61.7968 29.58 64.26 29.5711 64.744 29.3093 65.188 28.89 65.43L28.89 73.87C28.889 74.1405 29.0507 74.385 29.3 74.49 29.4927 74.114 29.8775 73.8754 30.3 73.87L30.64 73.87C31.3994 73.9348 31.9625 74.603 31.8976 75.3624 31.8405 76.0318 31.3095 76.5629 30.64 76.62L30.3 76.62C29.8408 76.6383 29.4283 76.3413 29.3 75.9 28.2974 75.7584 27.5443 74.9123 27.52 73.9L27.52 65.43C27.0883 65.2007 26.8218 64.7487 26.83 64.26 26.8316 60.6793 29.4574 57.6407 33 57.12L33 52.56C28.071 54.1859 23.4153 56.5458 19.19 59.56 17.21 61.1158 16.0379 63.4821 16 66L16 82 80 82 80 66C79.9478 63.4946 78.773 61.1451 76.8 59.6Z"/></svg>