<svg viewBox="0 0 96 96" xmlns="http://www.w3.org/2000/svg" xmlns:xlink="http://www.w3.org/1999/xlink" id="Icons_ClapperBoard" overflow="hidden"><path d="M30.5 38 88.1 27.8 85.3 12 6.6 26 9.2 40.7 9.4 80C9.4 82.2 11.2 84 13.4 84L85.4 84C87.6 84 89.4 82.2 89.4 80L89.4 38 30.5 38ZM75.4 17.8 82.1 16.6 82.3 17.8 76.8 25.6 69 27.1 75.4 17.8ZM59.2 20.7 67.1 19.3 60.6 28.6 52.7 30 59.2 20.7ZM42.9 23.6 50.8 22.2 44.3 31.5 36.4 32.9 42.9 23.6ZM26.7 26.5 34.6 25.1 28.1 34.4 20.2 35.8 26.7 26.5ZM18.3 28 12.5 36.3 11.2 29.2 18.3 28ZM73.4 63 25.4 63 25.4 51 73.4 51 73.4 63Z"/></svg>