<svg viewBox="0 0 96 96" xmlns="http://www.w3.org/2000/svg" xmlns:xlink="http://www.w3.org/1999/xlink" id="Icons_Medicine" overflow="hidden"><g><path d="M64 68 64 60 30 60C28.9 60 28 59.1 28 58L28 38C28 36.9 28.9 36 30 36L64 36 64 28C64 25.8 62.2 24 60 24L56.5 24C56.2 24 56 23.8 56 23.5L56 20.5C56 20.2 56.2 20 56.5 20L59 20C59.6 20 60 19.6 60 19L60 12C60 9.8 58.2 8 56 8L28 8C25.8 8 24 9.8 24 12L24 19C24 19.6 24.4 20 25 20L27.5 20C27.8 20 28 20.2 28 20.5L28 23.5C28 23.8 27.8 24 27.5 24L24 24C21.8 24 20 25.8 20 28L20 76C20 78.2 21.8 80 24 80L38 80C38 73.4 43.4 68 50 68L64 68Z"/><path d="M32 41 32 55C32 55.6 32.4 56 33 56L64 56 64 40 33 40C32.4 40 32 40.4 32 41Z"/><path d="M59 84 50 84C47.8 84 46 82.2 46 80 46 77.8 47.8 76 50 76L59 76 59 84ZM68 72 50 72C45.6 72 42 75.6 42 80 42 84.4 45.6 88 50 88L68 88C72.4 88 76 84.4 76 80 76 75.6 72.4 72 68 72Z"/></g></svg>