<svg viewBox="0 0 96 96" xmlns="http://www.w3.org/2000/svg" xmlns:xlink="http://www.w3.org/1999/xlink" id="Icons_ForkAndKnife" overflow="hidden"><path fill="currentColor" d="M78.6 31.4C91.6 16.8 86.9 11.7 86.9 11.7 85.3 10.1 82.8 10.1 81.2 11.7L43.3 49.6 10.3 80.4C8 82.7 8 86.5 10.3 88.9 12.6 91.2 16.4 91.2 18.8 88.9L48.9 55.9C50.4 56.6 54.4 58.6 55.6 57.3L78.6 31.4Z"/><path d="M88.8 80.4 62.5 55.5 58.5 60C57.8 60.7 56.6 61.6 54.7 61.7L80.4 88.9C82.8 91.2 86.6 91.2 88.9 88.9 91.1 86.5 91.1 82.7 88.8 80.4Z"/><path d="M35.9 47.6C35.9 47.6 37.7 47.2 39.7 47.5L40.5 46.7 47.4 39.8C47.1 37.9 47.5 36 47.5 36 48.2 31.7 46.5 26.7 41.4 21.6 33 13.2 21 5.4 21 5.4L19.2 7.2 39.4 27.4C40 28 40 28.9 39.4 29.5 38.8 30.1 37.9 30.1 37.3 29.5L17.1 9.3 14.3 12.1 34.5 32.3C35.1 32.9 35.1 33.8 34.5 34.4 33.9 35 33 35 32.4 34.4L12.2 14.2 9.4 17 29.6 37.2C30.2 37.8 30.2 38.7 29.6 39.3 29 39.9 28.1 39.9 27.5 39.3L7.2 19.2 5.4 21C5.4 21 13.9 33.8 21.5 41.5 26.6 46.6 31.6 48.3 35.9 47.6Z"/></svg>
